PathFileType	4	(X/Y/Z)	C:\Users\WrightLab\Desktop\Jo\P5V27.trc
DataRate	CameraRate	NumFrames	NumMarkers	Units	OrigDataRate	OrigDataStartFrame	OrigNumFrames
100.00	100.00	       16	19	mm	100.00	103	       819
Frame#	Time	Headset_Front			Headset_Back			Headset_Left			Headset_Right			Left_Shoulder			Right_Shoulder			Sternum			C7			Left Elbow			Right Elbow			Left Wrist			Right Wrist			Left ASIS			Right ASIS			S2			Left Knee			Right Knee			Left Ankle			Right Ankle			
		X1	Y1	Z1	X2	Y2	Z2	X3	Y3	Z3	X4	Y4	Z4	X5	Y5	Z5	X6	Y6	Z6	X7	Y7	Z7	X8	Y8	Z8	X9	Y9	Z9	X10	Y10	Z10	X11	Y11	Z11	X12	Y12	Z12	X13	Y13	Z13	X14	Y14	Z14	X15	Y15	Z15	X16	Y16	Z16	X17	Y17	Z17	X18	Y18	Z18	X19	Y19	Z19	

103	1.020																												-568.25775	1168.79114	-1137.95654	5.64369	960.63275	-1149.36584	-515.36060	1024.37891	-948.91071	-119.89130	913.66907	-1115.13245	-382.99939	930.25690	-1074.87500				-75.43906	476.91626	-1169.61804	-453.53622	468.04376	-1129.21521	-169.36574	66.01925	-1285.31665				
104	1.030																												-568.03656	1169.16235	-1137.64856	5.89505	960.47253	-1150.39233	-515.38623	1024.83313	-948.45532	-116.84005	913.87952	-1113.98792	-382.37003	930.41235	-1074.41187				-74.78448	477.34137	-1170.11243	-451.38214	467.83569	-1128.80383	-169.36574	66.01925	-1285.31665				
105	1.040																												-567.43848	1168.88440	-1136.78528	6.10637	960.71643	-1149.11365	-515.22437	1025.62561	-947.50433	-116.65725	913.48987	-1115.34106	-381.08368	930.15790	-1073.91931				-74.43621	476.93295	-1169.29846	-448.80389	467.77438	-1127.52075	-169.36574	66.01925	-1285.31665				
106	1.050																												-566.90747	1168.67737	-1136.73901	6.42025	960.56952	-1150.07043	-514.50958	1025.13477	-947.45972	-116.09613	912.95239	-1115.10376	-380.21729	929.75037	-1074.28955				-74.15405	477.06354	-1169.02576	-447.75546	467.42355	-1126.45239	-169.36574	66.01925	-1285.31665				
107	1.060																												-566.34796	1168.53369	-1135.94189	6.72792	961.91901	-1148.26624	-513.81085	1024.72485	-947.06464	-114.47993	913.38776	-1114.36682	-379.83463	929.23474	-1074.24487				-73.66917	477.01828	-1168.72241	-446.26395	467.71469	-1125.94238	-169.36574	66.01925	-1285.31665				
108	1.070																												-565.99146	1168.78394	-1136.13586	6.71049	960.68134	-1149.84753	-513.00128	1024.07947	-946.29663	-113.13969	913.62091	-1114.58325	-378.50732	929.54413	-1073.18567				-72.61426	477.27930	-1168.16907	-444.68198	466.93814	-1125.57019	-169.36574	66.01925	-1285.31665				
109	1.080																												-565.00781	1168.56042	-1136.22864	8.00824	960.46619	-1149.27173	-512.25629	1024.34265	-945.51483	-112.50886	913.29681	-1114.93323	-377.40042	929.97571	-1071.89209				-71.25993	477.28574	-1167.75195	-442.34082	466.66516	-1124.67566	-169.36574	66.01925	-1285.31665				
110	1.090																												-563.96100	1167.62537	-1135.10925	8.26322	960.69403	-1147.97937	-511.84030	1024.31177	-945.30872	-110.38810	913.14099	-1113.99329	-375.75912	928.87323	-1071.46912				-70.03654	476.96518	-1167.74524	-440.57721	467.49353	-1123.13513	-168.91048	65.08280	-1285.15222				
111	1.100																												-563.37762	1167.52026	-1134.89319	8.74224	960.55859	-1148.88989	-510.97842	1024.32703	-944.43237	-109.83288	913.45355	-1114.91577	-373.59570	928.88452	-1070.41956				-69.09939	475.96707	-1167.71521	-438.84061	467.00543	-1122.41162	-168.91048	65.08280	-1285.15222				
112	1.110																												-562.54449	1167.29590	-1134.12634	9.28085	960.59088	-1148.63623	-510.29129	1024.24634	-944.02545	-108.99309	912.89026	-1114.92749	-372.79309	929.17419	-1069.78625				-67.91709	476.15561	-1167.08691	-437.98837	467.29941	-1121.48340	-169.36574	66.01925	-1285.31665				
113	1.120																												-561.76923	1167.09143	-1133.60632	9.95188	960.73364	-1148.38037	-508.83505	1024.05298	-943.65625	-107.38791	913.02344	-1114.23840	-372.19583	929.06360	-1069.29590				-66.98145	476.35672	-1166.60706	-435.33035	466.49939	-1120.40308	-168.91048	65.08280	-1285.15222				
114	1.130																												-560.83960	1166.80518	-1133.36255	10.80249	960.83026	-1147.99683	-508.15347	1023.72028	-943.65887	-106.18535	913.02130	-1114.73059	-370.40170	928.21332	-1069.10107				-66.20149	476.52927	-1166.79236	-433.63351	466.90848	-1118.77502	-168.83388	64.46135	-1285.18921				
115	1.140																												-559.60553	1165.86169	-1133.40369	11.89744	960.80621	-1147.40173	-507.16553	1023.46124	-943.31659	-104.44460	911.90210	-1115.11755	-369.22739	927.48279	-1067.19482				-63.99907	476.76804	-1167.04407	-431.61649	466.68008	-1117.18713	-168.83388	64.46135	-1285.18921				
116	1.150																												-558.74951	1165.73596	-1133.43286	12.67798	960.82318	-1146.91919	-506.89505	1023.11768	-943.03046	-103.02045	912.09723	-1115.24268	-367.28696	926.88794	-1067.96191				-62.93245	476.54010	-1166.66016	-431.10904	467.41766	-1115.29883	-168.83388	64.46135	-1285.18921				
117	1.160																												-557.77301	1165.70032	-1133.03540	13.15429	960.76385	-1146.60205	-506.05701	1021.77271	-942.53125	-101.09338	911.48700	-1115.93372	-366.01511	926.58557	-1066.01843				-60.77735	476.39737	-1166.52380	-426.79968	465.80682	-1114.00134	-168.83388	64.46135	-1285.18921				
118	1.170																												-557.02411	1165.47217	-1132.78833	14.93389	960.36786	-1145.72168	-504.85413	1021.70319	-941.61627	-100.42398	911.22205	-1115.57471	-365.59756	925.63403	-1066.79089				-59.68539	475.95715	-1166.26147	-425.51868	466.54526	-1111.58765	-168.83388	64.46135	-1285.18921				
